<?xml version="1.0" encoding="UTF-8" standalone="no"?>
<!DOCTYPE svg PUBLIC "-//W3C//DTD SVG 1.1//EN" "http://www.w3.org/Graphics/SVG/1.1/DTD/svg11.dtd">
<svg width="100%" height="100%" viewBox="0 0 1125 1119" version="1.1" xmlns="http://www.w3.org/2000/svg" xmlns:xlink="http://www.w3.org/1999/xlink" xml:space="preserve" xmlns:serif="http://www.serif.com/" style="fill-rule:evenodd;clip-rule:evenodd;stroke-linejoin:round;stroke-miterlimit:2;">
    <g transform="matrix(1.101455,0,0,1.09679,-1.840008,-3.818669)">
        <path d="M1023.999,1.5L1023.999,16.5C1023.833,16.822 1022.986,16.694 1022.97,18.495C1022.54,69.853 1023.928,69.777 1022.969,660.499C1022.797,766.452 1022.914,1018.005 1022.982,1018.431C1023.059,1018.916 1023.922,1019.014 1023.999,1019.5C1022.766,1020.354 1025.232,1023.145 1023.999,1023.999C1022.388,1025.115 1022.155,1023.999 999.5,1023.999L1.5,1023.999C0.532,1014.673 1.103,1.32 1.211,1.211C1.324,1.097 1008.21,0.512 1023.999,1.5Z" style="fill:rgb(12,12,10);"/>
    </g>
    <g id="logo" transform="matrix(2.605252,0,0,2.605252,-783.111052,-778.111087)">
        <path d="M398.286,513.504L398.256,506.5C398.666,403.429 398.218,403.456 398.259,394.496C398.282,389.685 399.48,389.899 409.736,383.894C473.082,346.803 472.823,346.409 478.374,343.262C510.754,324.902 510.389,322.651 513.303,323.925C513.344,323.943 546.256,342.81 546.745,343.124C548.705,344.385 550.661,345.643 571.726,358.115C579.761,362.872 613.686,382.684 617.337,384.817C619.771,386.438 619.733,386.332 622.295,387.861C628.073,391.532 626.51,392.844 626.701,404.498C626.806,418.184 626.755,418.106 626.749,445.5C626.732,512.728 626.526,512.661 626.621,518.501C626.72,524.605 626.04,524.78 620.776,527.975C616.05,530.844 583.288,550.731 561.297,563.162C514.127,589.826 514.245,592.584 510.425,590.64C503.49,587.112 503.841,586.612 426.478,541.532C414.081,534.308 414.37,533.929 401.738,527.096C398.326,525.25 398.093,524.702 398.286,513.504ZM620.163,409.499C620.14,405.119 620.944,395.405 618.35,393.699C616.851,392.713 605.901,385.513 599.246,381.966C586.898,375.385 517.36,333.755 513.401,331.77C512.138,331.137 508.721,333.325 499.233,339.03C477.304,352.215 407.752,392.765 406.622,393.67C403.251,396.37 405.714,397.517 404.6,518.5C404.568,521.913 425.752,532.527 431.192,535.984C446.544,545.742 447.119,544.795 448.248,545.898C448.688,546.328 450.639,548.236 454.627,550.199C467.248,556.413 508.913,581.955 511.66,583.023C513.872,583.883 513.969,583.187 537.744,568.896C541.247,566.791 617.387,522.458 619.123,521.119C620.579,519.995 620.124,516.327 620.099,489.5C620.062,449.46 620.195,449.519 620.163,409.499Z" style="fill:rgb(196,124,58);"/>
        <path d="M520.647,561.752C514.024,565.777 513.356,567.144 506.772,563.069C503.785,561.22 446.458,527.434 444.523,526.457C422.555,513.856 419.432,512.833 419.992,507.533C420.931,498.641 419.084,404.75 420.967,402.903C423.355,400.56 479.717,368.103 496.602,357.674C511.531,348.454 512.182,348.695 513.606,349.222C516.367,350.244 553.649,373.066 600.237,399.945C606.366,403.48 604.905,405.135 604.873,423.502C604.72,511.778 604.376,511.82 604.105,512.157C602.733,513.859 527.355,557.838 520.647,561.752ZM596.951,471.499C597.119,459.113 597.043,459.188 597.036,429.498C597.032,408.963 597.883,407.963 594.244,405.958C591.668,404.539 516.668,358.199 513.095,358.625C509.88,359.009 506.127,361.162 483.225,375.006C459.079,389.602 430.596,405.797 428.763,407.716C427.29,409.258 428.096,506.013 428.29,506.577C429.113,508.969 486.976,541.066 507.78,554.06C512.878,557.244 513.465,556.71 518.509,553.513C525.947,548.8 526.226,549.456 533.699,544.858C576.781,518.35 593.333,510.488 596.095,508.081C597.174,507.14 596.967,506.441 596.951,471.499Z" style="fill:rgb(196,124,58);"/>
        <path d="M470.179,433.358C470.915,432.135 474.991,426.698 468.502,426.659C461.346,426.617 461.007,427.066 458.353,431.413C456.03,435.219 453.106,432.991 454.584,429.537C460.414,415.909 471.119,427.002 474.066,421.282C475.211,419.061 476.53,412.283 480.78,409.956C495.654,401.812 496.08,401.365 498.373,402.723C498.98,403.083 498.944,403.07 507.503,408.495C515.965,413.879 516.192,408.99 524.768,403.95C531.2,400.169 532.791,403.952 542.603,409.316C549.077,412.855 547.631,414.19 551.074,420.715C553.678,425.65 558.953,421.232 565.49,423.527C567.62,424.275 568.509,426.987 569.794,429.354C572.21,435.479 567.727,432.712 567.519,432.482C567.28,432.219 567.348,432.201 565.212,428.688C560.264,424.903 551.304,426.577 552.592,429.473C553.109,430.635 558.035,441.71 555.12,445.176C553.271,447.375 550.269,448.115 550.293,452.511C550.34,461.081 550.931,465.086 548.776,472.483L549.598,473.202C552.461,472.014 552.425,471.899 554.049,469.203C559.475,460.197 555.735,451.35 560.597,453.304C562.705,454.151 563.659,471.288 550.293,478.126C548.813,478.884 548.743,478.837 548.32,480.546L549.688,482.329C551.056,484.081 552.84,483.64 554.19,490.564C554.843,493.915 562.691,491.513 563.398,491.297C565.131,490.156 565.087,490.201 566.257,488.394C566.429,488.091 568.196,484.991 570.294,486.785C571.23,487.584 570.574,487.772 569.558,490.533C567.57,493.762 567.613,493.739 565.436,495.37C558.218,496.993 555.3,495.986 554.786,496.91C554.171,498.013 553.936,499.298 553.347,500.415C551.995,502.981 532.272,515.911 528.485,514.536C523.308,512.656 513.555,502.67 510.839,504.89C493.478,519.078 491.731,514.218 491.668,514.185C490.557,513.594 484.47,510.356 478.322,505.869L476.344,504.772L473.209,502.828C469.354,498.612 471.046,496.7 468.498,496.508C465.618,496.292 457.817,498.156 454.619,489.461C453.309,485.899 456.236,484.451 458.095,487.714C458.568,488.545 461.844,494.297 469.247,492.022C471.2,491.422 470.049,487.645 472.749,484.696C475.763,481.403 476.756,481.761 476.34,479.549C475.866,477.023 462.592,475.674 463.835,454.562C463.999,451.769 467.587,451.977 467.699,455.486C467.805,458.815 466.937,466.085 473.298,471.966C476.149,474.602 474.919,466.331 474.535,462.498L474.491,457.5C474.317,451.218 475.281,450.58 470.777,446.196C467.207,442.721 469.732,435.168 470.179,433.358ZM504.237,411.943C498.915,408.51 496.463,406.528 492.648,408.757C482.022,414.968 480.781,414.686 477.424,426.492L477.468,428.505C477.471,428.565 478.51,431.587 476.305,433.251C474.158,434.872 474.009,434.825 473.489,437.499C473.515,437.935 472.742,443.531 478.655,447.153C479.518,447.682 480.317,448.171 490.276,442.175C493.379,438.159 492.915,430.187 491.604,429.367C479.41,421.736 494.521,417.711 495.49,417.453C500.343,418.184 497.455,420.871 495.595,421.765C492.985,422.813 491.453,423.536 493.776,425.189C500.393,429.897 505.111,430.01 505.565,430.137L506.533,430.276C508.652,430.244 509.361,430.657 509.611,428.522C510.72,419.076 511.785,417.795 504.237,411.943ZM485.708,449.894C481.235,452.72 481.241,452.669 480.877,452.946C477.998,455.13 479.312,467.204 479.717,469.462C480.599,474.377 485.47,482.821 494.498,474.498C495.52,473.557 496.649,463.855 493.545,463.272C493.067,463.182 487.661,462.167 488.696,459.598C488.96,458.943 489.192,458.367 497.496,458.893C500.105,459.058 500.203,462.723 500.029,471.501C499.881,478.965 497.081,478.425 489.613,482.693C485.456,485.068 484.457,480.767 480.553,483.575C473.659,488.534 475.158,492.346 475.415,495.51C475.895,501.412 489.444,506.401 492.354,508.687C496.771,512.155 509.021,501.375 509.48,498.496C509.91,495.798 509.625,454.734 509.561,454.488C508.698,451.173 507.328,452.858 502.555,452.114C495.268,450.978 496.181,447.774 492.495,446.412C488.992,448.031 489.07,448.045 485.708,449.894ZM515.114,462.499C515.306,490.063 514.821,496.77 515.292,498.56C516.254,502.212 527.296,508.962 529.517,509.427C532.841,510.122 548.353,499.085 548.62,498.578C551.827,492.485 547.778,486.631 547.192,485.784L545.194,483.853C541.901,481.28 541.566,482.385 537.472,483.346C536.167,483.652 535.881,483.913 527.248,477.862L526.091,476.916C524.225,474.318 524.66,471.814 524.86,466.512C525.056,461.304 523.345,458.536 528.521,459.186C535.725,458.25 535.556,459.415 535.574,459.461C536.952,463.05 533.088,462.291 529.901,463.839C529.623,465.207 528.798,471.334 530.563,473.456C543.355,488.835 548.645,462.764 545.053,453.85L543.165,451.983L538.392,449.719L537.186,448.952C534.139,447.123 534.288,445.819 530.944,446.929C528.807,448.912 528.927,448.9 526.58,450.677C521.557,452.031 521.538,451.544 516.563,452.726C514.483,453.221 515.094,459.366 515.092,459.501L515.114,462.499ZM527.113,444.238C528.406,441.544 528.373,441.572 528.312,438.528L528.145,437.589L527.591,435.473L527.27,434.619C526.449,434.194 523.34,432.587 515.775,435.787C514.704,438.81 514.841,444.496 515.696,447.261C519.001,448.224 518.977,447.631 522.439,447.278C525.041,446.184 525.042,446.296 527.113,444.238ZM527.685,493.694C521.903,498.146 520.763,490.788 524.409,489.331C525.568,488.868 530.906,489.584 527.685,493.694ZM535.548,495.469C534.973,492.638 534.608,491.58 537.498,491.459C541.334,491.298 540.024,499.804 535.548,495.469ZM522.728,410.854C515.825,415.286 514.988,415.515 515.14,422.506C515.275,428.686 513.675,430.013 516.5,430.497C517.385,430.649 517.363,430.477 522.411,429.212C526.45,427.837 526.396,427.852 530.266,426.156C532.54,424.185 533.557,422.85 530.636,422.125C523.098,420.253 528.625,417.504 529.499,417.54C538.189,417.897 538.319,425.918 536.346,427.281C533.939,428.945 533.839,428.658 531.564,430.544C530.794,436.391 534.052,441.685 534.747,442.179C544.352,449.003 545.591,447.964 546.371,447.311C546.754,446.989 553.239,442.828 550.662,436.433C549.392,433.281 546.835,432.648 547.067,430.486C547.486,426.573 547.826,426.568 546.428,422.528L546.121,421.66L545.56,420.469L544.171,417.667L543.069,415.843C539.193,411.901 536.519,411.528 534.594,410.331C530.469,407.767 530.231,407.091 525.739,408.931L523.439,410.41L522.728,410.854ZM500.601,446.272C504.37,447.568 509.612,450.448 509.607,443.499C509.606,442.844 509.601,435.93 508.574,435.382C508.203,435.184 498.813,433.058 497.776,433.85C496.81,434.588 496.496,439.818 496.657,441.486C496.995,444.995 500.441,446.183 500.601,446.272ZM499.497,494.584C499.088,494.484 494.203,493.296 496.994,489.96C499.6,486.844 506.995,493.4 499.497,494.584ZM489.783,494.598C485.164,500.541 482.91,491.294 486.454,491.187C489.378,491.099 489.585,491.689 489.783,494.598ZM568.362,455.503C568.494,452.391 568.253,452.372 568.738,451.613C572.027,446.464 572.709,459.036 571.256,465.441C569.921,471.33 565.213,469.498 566.487,466.495C568.194,462.47 568.065,462.472 568.362,455.503ZM457.235,461.531C457.472,463.015 459.873,472.092 455.799,469.028C452.759,466.741 451.54,447.541 456.225,451.793C456.805,452.319 456.826,452.338 457.235,461.531ZM442.291,457.501C442.646,449.837 446.262,454.121 446.281,454.519C446.954,468.288 447.339,468.596 446.326,469.188C441.864,471.8 442.311,457.795 442.291,457.501ZM582.791,458.514C582.603,460.665 583.154,469.157 579.501,469.314C577.147,469.415 578.454,467.932 578.814,455.518C578.926,451.62 582.858,451.688 582.848,455.489C582.845,456.497 582.794,457.505 582.791,458.514ZM510.282,523.497C510.281,522.808 510.274,515.461 510.878,514.909C515.108,511.045 515.153,527.205 513.77,528.763C510.633,532.298 510.302,524.002 510.282,523.497ZM562.142,440.523C563.12,436.352 565.451,435.722 567.335,439.565C569.35,443.673 563.939,446.694 562.142,440.523ZM564.264,479.439C560.547,486.435 556.498,477.29 560.372,476.232C563.546,475.364 564.082,476.124 564.264,479.439ZM462.326,440.473C459.315,447.801 455.42,440.843 457.709,438.684C461.695,434.925 462.281,440.079 462.326,440.473ZM464.558,476.39C470.445,481.131 461.432,483.495 460.698,479.454C460.105,476.19 461.304,476.108 464.558,476.39ZM577.498,445.737C577.133,445.611 573.339,444.303 574.863,441.689C577.087,437.871 584.122,443.569 577.498,445.737ZM445.346,442.432C445.608,442.141 448.222,439.236 450.185,441.703C452.07,444.072 445.011,450.443 445.346,442.432ZM451.496,475.489C457.122,475.883 454.35,480.739 451.478,479.543C448.788,478.422 449.27,477.323 451.496,475.489ZM573.462,475.616C578.292,478.784 571.476,481.503 570.614,478.459C569.885,475.885 570.791,475.733 573.462,475.616Z" style="fill:rgb(196,124,58);"/>
    </g>
    <g id="echos" transform="matrix(1,0,0,1,-401,-401)">
        <g transform="matrix(1.777778,0,0,1.777778,-381,-375.99994)">
            <g transform="matrix(1,0,0,1,541.945299,1012.653589)">
                <g>
                    <path d="M70.281,-30.406L14.766,-30.406C15.266,-23.508 17.91,-17.938 22.703,-13.688C27.504,-9.438 33.562,-7.312 40.875,-7.312C45,-7.312 48.785,-8.047 52.234,-9.516C55.68,-10.992 58.664,-13.164 61.188,-16.031L66.234,-10.219C63.297,-6.688 59.617,-3.992 55.203,-2.141C50.785,-0.297 45.926,0.625 40.625,0.625C33.812,0.625 27.773,-0.82 22.516,-3.719C17.266,-6.625 13.164,-10.641 10.219,-15.766C7.27,-20.898 5.797,-26.707 5.797,-33.188C5.797,-39.656 7.203,-45.457 10.016,-50.594C12.836,-55.727 16.707,-59.723 21.625,-62.578C26.551,-65.441 32.086,-66.875 38.234,-66.875C44.367,-66.875 49.875,-65.441 54.75,-62.578C59.633,-59.723 63.461,-55.75 66.234,-50.656C69.016,-45.57 70.406,-39.75 70.406,-33.188L70.281,-30.406ZM38.234,-59.172C31.836,-59.172 26.473,-57.129 22.141,-53.047C17.805,-48.973 15.348,-43.656 14.766,-37.094L61.828,-37.094C61.234,-43.656 58.77,-48.973 54.438,-53.047C50.102,-57.129 44.703,-59.172 38.234,-59.172Z" style="fill:rgb(215,197,182);fill-rule:nonzero;"/>
                </g>
            </g>
        </g>
        <g transform="matrix(1.777778,0,0,1.777778,-381,-375.99994)">
            <g transform="matrix(1,0,0,1,618.148433,1012.653589)">
                <g>
                    <path d="M40,0.625C33.438,0.625 27.566,-0.801 22.391,-3.656C17.223,-6.52 13.164,-10.535 10.219,-15.703C7.27,-20.879 5.797,-26.707 5.797,-33.188C5.797,-39.656 7.27,-45.457 10.219,-50.594C13.164,-55.727 17.223,-59.723 22.391,-62.578C27.566,-65.441 33.438,-66.875 40,-66.875C45.719,-66.875 50.828,-65.758 55.328,-63.531C59.828,-61.301 63.379,-58.039 65.984,-53.75L59.297,-49.203C57.109,-52.484 54.332,-54.941 50.969,-56.578C47.602,-58.223 43.945,-59.047 40,-59.047C35.195,-59.047 30.883,-57.973 27.062,-55.828C23.238,-53.68 20.254,-50.629 18.109,-46.672C15.961,-42.723 14.891,-38.227 14.891,-33.188C14.891,-28.051 15.961,-23.523 18.109,-19.609C20.254,-15.703 23.238,-12.676 27.062,-10.531C30.883,-8.383 35.195,-7.312 40,-7.312C43.945,-7.312 47.602,-8.109 50.969,-9.703C54.332,-11.305 57.109,-13.75 59.297,-17.031L65.984,-12.484C63.379,-8.203 59.805,-4.945 55.266,-2.719C50.723,-0.488 45.633,0.625 40,0.625Z" style="fill:rgb(215,197,182);fill-rule:nonzero;"/>
                </g>
            </g>
        </g>
        <g transform="matrix(1.777778,0,0,1.777778,-381,-375.99994)">
            <g transform="matrix(1,0,0,1,689.178837,1012.653589)">
                <g>
                    <path d="M46.312,-66.875C54.633,-66.875 61.254,-64.453 66.172,-59.609C71.098,-54.773 73.562,-47.734 73.562,-38.484L73.562,0L64.594,0L64.594,-37.594C64.594,-44.488 62.867,-49.742 59.422,-53.359C55.973,-56.984 51.055,-58.797 44.672,-58.797C37.516,-58.797 31.852,-56.672 27.688,-52.422C23.531,-48.172 21.453,-42.305 21.453,-34.828L21.453,0L12.484,0L12.484,-93.625L21.453,-93.625L21.453,-54.766C23.891,-58.629 27.254,-61.613 31.547,-63.719C35.836,-65.82 40.758,-66.875 46.312,-66.875Z" style="fill:rgb(215,197,182);fill-rule:nonzero;"/>
                </g>
            </g>
        </g>
        <g transform="matrix(1.777778,0,0,1.777778,-381,-375.99994)">
            <g transform="matrix(1,0,0,1,774.591946,1012.653589)">
                <g>
                    <path d="M52.984,0.75C44.242,0.75 36.316,-1.203 29.203,-5.109C22.098,-9.023 16.547,-14.391 12.547,-21.203C8.555,-28.016 6.562,-35.664 6.562,-44.156C6.562,-52.656 8.555,-60.312 12.547,-67.125C16.547,-73.938 22.098,-79.297 29.203,-83.203C36.316,-87.117 44.242,-89.078 52.984,-89.078C61.734,-89.078 69.617,-87.141 76.641,-83.266C83.672,-79.398 89.203,-74.039 93.234,-67.188C97.273,-60.332 99.297,-52.656 99.297,-44.156C99.297,-35.664 97.273,-27.988 93.234,-21.125C89.203,-14.27 83.672,-8.91 76.641,-5.047C69.617,-1.18 61.734,0.75 52.984,0.75ZM52.984,-7.562C59.973,-7.562 66.285,-9.141 71.922,-12.297C77.555,-15.453 81.969,-19.828 85.156,-25.422C88.352,-31.016 89.953,-37.258 89.953,-44.156C89.953,-51.051 88.352,-57.297 85.156,-62.891C81.969,-68.484 77.555,-72.859 71.922,-76.016C66.285,-79.172 59.973,-80.75 52.984,-80.75C46.004,-80.75 39.676,-79.172 34,-76.016C28.32,-72.859 23.863,-68.484 20.625,-62.891C17.383,-57.297 15.766,-51.051 15.766,-44.156C15.766,-37.258 17.383,-31.016 20.625,-25.422C23.863,-19.828 28.32,-15.453 34,-12.297C39.676,-9.141 46.004,-7.562 52.984,-7.562Z" style="fill:rgb(215,197,182);fill-rule:nonzero;"/>
                </g>
            </g>
        </g>
        <g transform="matrix(1.777778,0,0,1.777778,-381,-375.99994)">
            <g transform="matrix(1,0,0,1,880.443652,1012.653589)">
                <g>
                    <path d="M38.734,0.75C32.172,0.75 25.879,-0.297 19.859,-2.391C13.848,-4.492 9.207,-7.27 5.938,-10.719L9.594,-17.922C12.789,-14.723 17.035,-12.133 22.328,-10.156C27.629,-8.176 33.098,-7.188 38.734,-7.188C46.641,-7.188 52.566,-8.633 56.516,-11.531C60.473,-14.438 62.453,-18.207 62.453,-22.844C62.453,-26.375 61.379,-29.188 59.234,-31.281C57.086,-33.383 54.457,-35.004 51.344,-36.141C48.238,-37.273 43.91,-38.52 38.359,-39.875C31.711,-41.551 26.41,-43.164 22.453,-44.719C18.504,-46.281 15.117,-48.66 12.297,-51.859C9.484,-55.055 8.078,-59.391 8.078,-64.859C8.078,-69.316 9.254,-73.375 11.609,-77.031C13.961,-80.688 17.578,-83.609 22.453,-85.797C27.336,-87.984 33.395,-89.078 40.625,-89.078C45.676,-89.078 50.617,-88.379 55.453,-86.984C60.285,-85.598 64.469,-83.688 68,-81.25L64.859,-73.812C61.148,-76.25 57.191,-78.078 52.984,-79.297C48.785,-80.516 44.664,-81.125 40.625,-81.125C32.883,-81.125 27.055,-79.629 23.141,-76.641C19.234,-73.66 17.281,-69.816 17.281,-65.109C17.281,-61.578 18.352,-58.738 20.5,-56.594C22.645,-54.445 25.336,-52.805 28.578,-51.672C31.816,-50.535 36.172,-49.289 41.641,-47.938C48.117,-46.344 53.352,-44.766 57.344,-43.203C61.344,-41.648 64.727,-39.297 67.5,-36.141C70.281,-32.992 71.672,-28.727 71.672,-23.344C71.672,-18.883 70.469,-14.82 68.062,-11.156C65.664,-7.5 61.984,-4.598 57.016,-2.453C52.055,-0.316 45.961,0.75 38.734,0.75Z" style="fill:rgb(215,197,182);fill-rule:nonzero;"/>
                </g>
            </g>
        </g>
    </g>
</svg>
